<svg id="Layer_3" enable-background="new 0 0 64 64" height="512" viewBox="0 0 64 64" width="512" xmlns="http://www.w3.org/2000/svg"><circle cx="32" cy="32" fill="#c66b60" r="12"/><path d="m20 32c0 3.208 1.266 6.114 3.317 8.267 1.309.466 2.713.733 4.183.733 6.904 0 12.5-5.596 12.5-12.5 0-2.572-.779-4.961-2.11-6.949-1.741-.983-3.748-1.551-5.89-1.551-6.627 0-12 5.373-12 12z" fill="#e47c6e"/><path d="m40 29h-5v-5h-6v5h-5v6h5v5h6v-5h5z" fill="#fff"/><path d="m3 53h10l11 9h18c1.657 0 3-1.343 3-3 0-1.657-1.343-3-3-3h-14l3-3-12-12h-16" fill="#efbe9a"/><path d="m23 47.757h2v8.485h-2z" fill="#db9b7c" transform="matrix(.707 -.707 .707 .707 -29.74 32.201)"/><path d="m2 38h2v18h-2z" fill="#4472b2"/><path d="m61 11h-10l-11-9h-18c-1.657 0-3 1.343-3 3 0 1.657 1.343 3 3 3h14l-3 3 12 12h16" fill="#efbe9a"/><path d="m39 7.757h2v8.485h-2z" fill="#db9b7c" transform="matrix(.707 -.707 .707 .707 3.23 31.799)"/><path d="m60 8h2v18h-2z" fill="#4472b2"/></svg>